<svg xmlns="http://www.w3.org/2000/svg" width="880" height="600" viewBox="0 0 880 600" role="img" aria-label="Sheet S-201: foundation plan. 149 accepted LeetCode problems drawn as piles: 52 easy, 74 medium, 23 hard, plus a 90-day activity log."><title>Sheet S-201: foundation plan. 149 accepted LeetCode problems drawn as piles: 52 easy, 74 medium, 23 hard, plus a 90-day activity log.</title><style>.m{font-family:ui-monospace,SFMono-Regular,'SF Mono','Cascadia Mono',Consolas,'Liberation Mono',Menlo,monospace}.s{font-family:-apple-system,BlinkMacSystemFont,'Segoe UI','Helvetica Neue',Helvetica,Arial,sans-serif}</style><defs>
<pattern id="g1" width="20" height="20" patternUnits="userSpaceOnUse"><path d="M20 0H0V20" fill="none" stroke="#EDE9DF"/></pattern>
<pattern id="g2" width="100" height="100" patternUnits="userSpaceOnUse"><rect width="100" height="100" fill="url(#g1)"/><path d="M100 0H0V100" fill="none" stroke="#E0D9C9"/></pattern>
<pattern id="wip" width="8" height="8" patternUnits="userSpaceOnUse" patternTransform="rotate(-45)"><line y2="8" stroke="#B86A04" stroke-width="1.2" opacity=".35"/></pattern>
<pattern id="earth" width="9" height="9" patternUnits="userSpaceOnUse" patternTransform="rotate(-45)"><line y2="9" stroke="#B7BFCD" stroke-width=".8"/></pattern>
<pattern id="concrete" width="18" height="18" patternUnits="userSpaceOnUse"><g fill="#A5AFC2"><circle cx="3" cy="4" r="1.1"/><circle cx="12" cy="11" r=".8"/><circle cx="15" cy="3" r=".6"/><circle cx="6" cy="15" r=".7"/></g><g fill="none" stroke="#A5AFC2" stroke-width=".8"><path d="M9 3l2.2 3.6H6.8z"/><path d="M2 9.5l2 3.2H0z"/><path d="M13 14l2 3.2h-4z"/></g></pattern>
<filter id="stampink"><feTurbulence type="fractalNoise" baseFrequency=".8" numOctaves="2" seed="7" result="n"/><feColorMatrix in="n" values="0 0 0 0 0 0 0 0 0 0 0 0 0 0 0 0 0 0 -4 3.2" result="m"/><feComposite in="SourceGraphic" in2="m" operator="in"/></filter>
</defs><rect x="0" y="0" width="880" height="600" fill="#F7F5EF" rx="12"/><rect x="0" y="0" width="880" height="600" fill="url(#g2)" rx="12" opacity="0.75"/><rect x="16" y="16" width="848" height="568" fill="none" stroke="#172238" stroke-width="1.3" opacity="0.8"/><text x="69" y="11.5" fill="#55637C" font-size="8" text-anchor="middle" class="m">1</text><text x="69" y="595.5" fill="#55637C" font-size="8" text-anchor="middle" class="m">1</text><text x="175" y="11.5" fill="#55637C" font-size="8" text-anchor="middle" class="m">2</text><text x="175" y="595.5" fill="#55637C" font-size="8" text-anchor="middle" class="m">2</text><line x1="122" y1="16" x2="122" y2="11" stroke="#55637C" stroke-width="0.7"/><line x1="122" y1="584" x2="122" y2="589" stroke="#55637C" stroke-width="0.7"/><text x="281" y="11.5" fill="#55637C" font-size="8" text-anchor="middle" class="m">3</text><text x="281" y="595.5" fill="#55637C" font-size="8" text-anchor="middle" class="m">3</text><line x1="228" y1="16" x2="228" y2="11" stroke="#55637C" stroke-width="0.7"/><line x1="228" y1="584" x2="228" y2="589" stroke="#55637C" stroke-width="0.7"/><text x="387" y="11.5" fill="#55637C" font-size="8" text-anchor="middle" class="m">4</text><text x="387" y="595.5" fill="#55637C" font-size="8" text-anchor="middle" class="m">4</text><line x1="334" y1="16" x2="334" y2="11" stroke="#55637C" stroke-width="0.7"/><line x1="334" y1="584" x2="334" y2="589" stroke="#55637C" stroke-width="0.7"/><text x="493" y="11.5" fill="#55637C" font-size="8" text-anchor="middle" class="m">5</text><text x="493" y="595.5" fill="#55637C" font-size="8" text-anchor="middle" class="m">5</text><line x1="440" y1="16" x2="440" y2="11" stroke="#55637C" stroke-width="0.7"/><line x1="440" y1="584" x2="440" y2="589" stroke="#55637C" stroke-width="0.7"/><text x="599" y="11.5" fill="#55637C" font-size="8" text-anchor="middle" class="m">6</text><text x="599" y="595.5" fill="#55637C" font-size="8" text-anchor="middle" class="m">6</text><line x1="546" y1="16" x2="546" y2="11" stroke="#55637C" stroke-width="0.7"/><line x1="546" y1="584" x2="546" y2="589" stroke="#55637C" stroke-width="0.7"/><text x="705" y="11.5" fill="#55637C" font-size="8" text-anchor="middle" class="m">7</text><text x="705" y="595.5" fill="#55637C" font-size="8" text-anchor="middle" class="m">7</text><line x1="652" y1="16" x2="652" y2="11" stroke="#55637C" stroke-width="0.7"/><line x1="652" y1="584" x2="652" y2="589" stroke="#55637C" stroke-width="0.7"/><text x="811" y="11.5" fill="#55637C" font-size="8" text-anchor="middle" class="m">8</text><text x="811" y="595.5" fill="#55637C" font-size="8" text-anchor="middle" class="m">8</text><line x1="758" y1="16" x2="758" y2="11" stroke="#55637C" stroke-width="0.7"/><line x1="758" y1="584" x2="758" y2="589" stroke="#55637C" stroke-width="0.7"/><text x="8" y="90" fill="#55637C" font-size="8" text-anchor="middle" class="m">A</text><text x="872" y="90" fill="#55637C" font-size="8" text-anchor="middle" class="m">A</text><text x="8" y="232" fill="#55637C" font-size="8" text-anchor="middle" class="m">B</text><text x="872" y="232" fill="#55637C" font-size="8" text-anchor="middle" class="m">B</text><line x1="16" y1="158" x2="11" y2="158" stroke="#55637C" stroke-width="0.7"/><line x1="864" y1="158" x2="869" y2="158" stroke="#55637C" stroke-width="0.7"/><text x="8" y="374" fill="#55637C" font-size="8" text-anchor="middle" class="m">C</text><text x="872" y="374" fill="#55637C" font-size="8" text-anchor="middle" class="m">C</text><line x1="16" y1="300" x2="11" y2="300" stroke="#55637C" stroke-width="0.7"/><line x1="864" y1="300" x2="869" y2="300" stroke="#55637C" stroke-width="0.7"/><text x="8" y="516" fill="#55637C" font-size="8" text-anchor="middle" class="m">D</text><text x="872" y="516" fill="#55637C" font-size="8" text-anchor="middle" class="m">D</text><line x1="16" y1="442" x2="11" y2="442" stroke="#55637C" stroke-width="0.7"/><line x1="864" y1="442" x2="869" y2="442" stroke="#55637C" stroke-width="0.7"/><text x="36" y="42" fill="#55637C" font-size="9.5" letter-spacing="1.6" class="m">DRAWING SET TJ  ·  SHEET S-201  ·  FOUNDATION PLAN</text><text x="844" y="42" fill="#55637C" font-size="9.5" text-anchor="end" letter-spacing="1.6" class="m">SCALE: NTS</text><line x1="36" y1="52" x2="844" y2="52" stroke="#B7BFCD" stroke-width="0.8"/><text x="42" y="100" fill="#172238" font-size="28" font-weight="800" class="s">FOUNDATION — DSA</text><text x="44" y="124" fill="#55637C" font-size="11.5" class="m">one pile per accepted LeetCode problem · pile depth = difficulty</text><text x="836" y="106" fill="#172238" font-size="48" text-anchor="end" font-weight="800" class="s">149</text><text x="836" y="126" fill="#55637C" font-size="9" text-anchor="end" letter-spacing="2" class="m">PILES DRIVEN</text><text x="422" y="166" fill="#55637C" font-size="8.5" text-anchor="middle" letter-spacing="2" class="m">EVERYTHING ELSE ON THESE SHEETS STANDS ON THIS</text><rect x="44" y="184" width="792" height="214" fill="url(#earth)"/><rect x="44" y="176" width="756" height="8" fill="#172238"/><rect x="52" y="184" width="2.34" height="64" fill="#172238" opacity="0.9"/><path d="M52 248h2.34l-1.17 4z" stroke-width="1" fill="#172238"/><rect x="56.67" y="184" width="2.34" height="64" fill="#172238" opacity="0.9"/><path d="M56.67 248h2.34l-1.17 4z" stroke-width="1" fill="#172238"/><rect x="61.34" y="184" width="2.34" height="64" fill="#172238" opacity="0.9"/><path d="M61.34 248h2.34l-1.17 4z" stroke-width="1" fill="#172238"/><rect x="66.01" y="184" width="2.34" height="64" fill="#172238" opacity="0.9"/><path d="M66.01 248h2.34l-1.17 4z" stroke-width="1" fill="#172238"/><rect x="70.68" y="184" width="2.34" height="64" fill="#172238" opacity="0.9"/><path d="M70.68 248h2.34l-1.17 4z" stroke-width="1" fill="#172238"/><rect x="75.36" y="184" width="2.34" height="64" fill="#172238" opacity="0.9"/><path d="M75.36 248h2.34l-1.17 4z" stroke-width="1" fill="#172238"/><rect x="80.03" y="184" width="2.34" height="64" fill="#172238" opacity="0.9"/><path d="M80.03 248h2.34l-1.17 4z" stroke-width="1" fill="#172238"/><rect x="84.7" y="184" width="2.34" height="64" fill="#172238" opacity="0.9"/><path d="M84.7 248h2.34l-1.17 4z" stroke-width="1" fill="#172238"/><rect x="89.37" y="184" width="2.34" height="64" fill="#172238" opacity="0.9"/><path d="M89.37 248h2.34l-1.17 4z" stroke-width="1" fill="#172238"/><rect x="94.04" y="184" width="2.34" height="64" fill="#172238" opacity="0.9"/><path d="M94.04 248h2.34l-1.17 4z" stroke-width="1" fill="#172238"/><rect x="98.71" y="184" width="2.34" height="64" fill="#172238" opacity="0.9"/><path d="M98.71 248h2.34l-1.17 4z" stroke-width="1" fill="#172238"/><rect x="103.38" y="184" width="2.34" height="64" fill="#172238" opacity="0.9"/><path d="M103.38 248h2.34l-1.17 4z" stroke-width="1" fill="#172238"/><rect x="108.05" y="184" width="2.34" height="64" fill="#172238" opacity="0.9"/><path d="M108.05 248h2.34l-1.17 4z" stroke-width="1" fill="#172238"/><rect x="112.72" y="184" width="2.34" height="64" fill="#172238" opacity="0.9"/><path d="M112.72 248h2.34l-1.17 4z" stroke-width="1" fill="#172238"/><rect x="117.4" y="184" width="2.34" height="64" fill="#172238" opacity="0.9"/><path d="M117.4 248h2.34l-1.17 4z" stroke-width="1" fill="#172238"/><rect x="122.07" y="184" width="2.34" height="64" fill="#172238" opacity="0.9"/><path d="M122.07 248h2.34l-1.17 4z" stroke-width="1" fill="#172238"/><rect x="126.74" y="184" width="2.34" height="64" fill="#172238" opacity="0.9"/><path d="M126.74 248h2.34l-1.17 4z" stroke-width="1" fill="#172238"/><rect x="131.41" y="184" width="2.34" height="64" fill="#172238" opacity="0.9"/><path d="M131.41 248h2.34l-1.17 4z" stroke-width="1" fill="#172238"/><rect x="136.08" y="184" width="2.34" height="64" fill="#172238" opacity="0.9"/><path d="M136.08 248h2.34l-1.17 4z" stroke-width="1" fill="#172238"/><rect x="140.75" y="184" width="2.34" height="64" fill="#172238" opacity="0.9"/><path d="M140.75 248h2.34l-1.17 4z" stroke-width="1" fill="#172238"/><rect x="145.42" y="184" width="2.34" height="64" fill="#172238" opacity="0.9"/><path d="M145.42 248h2.34l-1.17 4z" stroke-width="1" fill="#172238"/><rect x="150.09" y="184" width="2.34" height="64" fill="#172238" opacity="0.9"/><path d="M150.09 248h2.34l-1.17 4z" stroke-width="1" fill="#172238"/><rect x="154.77" y="184" width="2.34" height="64" fill="#172238" opacity="0.9"/><path d="M154.77 248h2.34l-1.17 4z" stroke-width="1" fill="#172238"/><rect x="159.44" y="184" width="2.34" height="64" fill="#172238" opacity="0.9"/><path d="M159.44 248h2.34l-1.17 4z" stroke-width="1" fill="#172238"/><rect x="164.11" y="184" width="2.34" height="64" fill="#172238" opacity="0.9"/><path d="M164.11 248h2.34l-1.17 4z" stroke-width="1" fill="#172238"/><rect x="168.78" y="184" width="2.34" height="64" fill="#172238" opacity="0.9"/><path d="M168.78 248h2.34l-1.17 4z" stroke-width="1" fill="#172238"/><rect x="173.45" y="184" width="2.34" height="64" fill="#172238" opacity="0.9"/><path d="M173.45 248h2.34l-1.17 4z" stroke-width="1" fill="#172238"/><rect x="178.12" y="184" width="2.34" height="64" fill="#172238" opacity="0.9"/><path d="M178.12 248h2.34l-1.17 4z" stroke-width="1" fill="#172238"/><rect x="182.79" y="184" width="2.34" height="64" fill="#172238" opacity="0.9"/><path d="M182.79 248h2.34l-1.17 4z" stroke-width="1" fill="#172238"/><rect x="187.46" y="184" width="2.34" height="64" fill="#172238" opacity="0.9"/><path d="M187.46 248h2.34l-1.17 4z" stroke-width="1" fill="#172238"/><rect x="192.13" y="184" width="2.34" height="64" fill="#172238" opacity="0.9"/><path d="M192.13 248h2.34l-1.17 4z" stroke-width="1" fill="#172238"/><rect x="196.81" y="184" width="2.34" height="64" fill="#172238" opacity="0.9"/><path d="M196.81 248h2.34l-1.17 4z" stroke-width="1" fill="#172238"/><rect x="201.48" y="184" width="2.34" height="64" fill="#172238" opacity="0.9"/><path d="M201.48 248h2.34l-1.17 4z" stroke-width="1" fill="#172238"/><rect x="206.15" y="184" width="2.34" height="64" fill="#172238" opacity="0.9"/><path d="M206.15 248h2.34l-1.17 4z" stroke-width="1" fill="#172238"/><rect x="210.82" y="184" width="2.34" height="64" fill="#172238" opacity="0.9"/><path d="M210.82 248h2.34l-1.17 4z" stroke-width="1" fill="#172238"/><rect x="215.49" y="184" width="2.34" height="64" fill="#172238" opacity="0.9"/><path d="M215.49 248h2.34l-1.17 4z" stroke-width="1" fill="#172238"/><rect x="220.16" y="184" width="2.34" height="64" fill="#172238" opacity="0.9"/><path d="M220.16 248h2.34l-1.17 4z" stroke-width="1" fill="#172238"/><rect x="224.83" y="184" width="2.34" height="64" fill="#172238" opacity="0.9"/><path d="M224.83 248h2.34l-1.17 4z" stroke-width="1" fill="#172238"/><rect x="229.5" y="184" width="2.34" height="64" fill="#172238" opacity="0.9"/><path d="M229.5 248h2.34l-1.17 4z" stroke-width="1" fill="#172238"/><rect x="234.17" y="184" width="2.34" height="64" fill="#172238" opacity="0.9"/><path d="M234.17 248h2.34l-1.17 4z" stroke-width="1" fill="#172238"/><rect x="238.85" y="184" width="2.34" height="64" fill="#172238" opacity="0.9"/><path d="M238.85 248h2.34l-1.17 4z" stroke-width="1" fill="#172238"/><rect x="243.52" y="184" width="2.34" height="64" fill="#172238" opacity="0.9"/><path d="M243.52 248h2.34l-1.17 4z" stroke-width="1" fill="#172238"/><rect x="248.19" y="184" width="2.34" height="64" fill="#172238" opacity="0.9"/><path d="M248.19 248h2.34l-1.17 4z" stroke-width="1" fill="#172238"/><rect x="252.86" y="184" width="2.34" height="64" fill="#172238" opacity="0.9"/><path d="M252.86 248h2.34l-1.17 4z" stroke-width="1" fill="#172238"/><rect x="257.53" y="184" width="2.34" height="64" fill="#172238" opacity="0.9"/><path d="M257.53 248h2.34l-1.17 4z" stroke-width="1" fill="#172238"/><rect x="262.2" y="184" width="2.34" height="64" fill="#172238" opacity="0.9"/><path d="M262.2 248h2.34l-1.17 4z" stroke-width="1" fill="#172238"/><rect x="266.87" y="184" width="2.34" height="64" fill="#172238" opacity="0.9"/><path d="M266.87 248h2.34l-1.17 4z" stroke-width="1" fill="#172238"/><rect x="271.54" y="184" width="2.34" height="64" fill="#172238" opacity="0.9"/><path d="M271.54 248h2.34l-1.17 4z" stroke-width="1" fill="#172238"/><rect x="276.21" y="184" width="2.34" height="64" fill="#172238" opacity="0.9"/><path d="M276.21 248h2.34l-1.17 4z" stroke-width="1" fill="#172238"/><rect x="280.89" y="184" width="2.34" height="64" fill="#172238" opacity="0.9"/><path d="M280.89 248h2.34l-1.17 4z" stroke-width="1" fill="#172238"/><rect x="285.56" y="184" width="2.34" height="64" fill="#172238" opacity="0.9"/><path d="M285.56 248h2.34l-1.17 4z" stroke-width="1" fill="#172238"/><rect x="290.23" y="184" width="2.34" height="64" fill="#172238" opacity="0.9"/><path d="M290.23 248h2.34l-1.17 4z" stroke-width="1" fill="#172238"/><rect x="141.08" y="258" width="62.4" height="16" fill="#F7F5EF"/><text x="172.28" y="270" fill="#172238" font-size="10" text-anchor="middle" font-weight="800" letter-spacing="1.5" class="m">EASY 52</text><rect x="316.9" y="184" width="2.34" height="128" fill="#172238" opacity="0.9"/><path d="M316.9 312h2.34l-1.17 4z" stroke-width="1" fill="#172238"/><rect x="321.57" y="184" width="2.34" height="128" fill="#172238" opacity="0.9"/><path d="M321.57 312h2.34l-1.17 4z" stroke-width="1" fill="#172238"/><rect x="326.24" y="184" width="2.34" height="128" fill="#172238" opacity="0.9"/><path d="M326.24 312h2.34l-1.17 4z" stroke-width="1" fill="#172238"/><rect x="330.91" y="184" width="2.34" height="128" fill="#172238" opacity="0.9"/><path d="M330.91 312h2.34l-1.17 4z" stroke-width="1" fill="#172238"/><rect x="335.58" y="184" width="2.34" height="128" fill="#172238" opacity="0.9"/><path d="M335.58 312h2.34l-1.17 4z" stroke-width="1" fill="#172238"/><rect x="340.26" y="184" width="2.34" height="128" fill="#172238" opacity="0.9"/><path d="M340.26 312h2.34l-1.17 4z" stroke-width="1" fill="#172238"/><rect x="344.93" y="184" width="2.34" height="128" fill="#172238" opacity="0.9"/><path d="M344.93 312h2.34l-1.17 4z" stroke-width="1" fill="#172238"/><rect x="349.6" y="184" width="2.34" height="128" fill="#172238" opacity="0.9"/><path d="M349.6 312h2.34l-1.17 4z" stroke-width="1" fill="#172238"/><rect x="354.27" y="184" width="2.34" height="128" fill="#172238" opacity="0.9"/><path d="M354.27 312h2.34l-1.17 4z" stroke-width="1" fill="#172238"/><rect x="358.94" y="184" width="2.34" height="128" fill="#172238" opacity="0.9"/><path d="M358.94 312h2.34l-1.17 4z" stroke-width="1" fill="#172238"/><rect x="363.61" y="184" width="2.34" height="128" fill="#172238" opacity="0.9"/><path d="M363.61 312h2.34l-1.17 4z" stroke-width="1" fill="#172238"/><rect x="368.28" y="184" width="2.34" height="128" fill="#172238" opacity="0.9"/><path d="M368.28 312h2.34l-1.17 4z" stroke-width="1" fill="#172238"/><rect x="372.95" y="184" width="2.34" height="128" fill="#172238" opacity="0.9"/><path d="M372.95 312h2.34l-1.17 4z" stroke-width="1" fill="#172238"/><rect x="377.62" y="184" width="2.34" height="128" fill="#172238" opacity="0.9"/><path d="M377.62 312h2.34l-1.17 4z" stroke-width="1" fill="#172238"/><rect x="382.3" y="184" width="2.34" height="128" fill="#172238" opacity="0.9"/><path d="M382.3 312h2.34l-1.17 4z" stroke-width="1" fill="#172238"/><rect x="386.97" y="184" width="2.34" height="128" fill="#172238" opacity="0.9"/><path d="M386.97 312h2.34l-1.17 4z" stroke-width="1" fill="#172238"/><rect x="391.64" y="184" width="2.34" height="128" fill="#172238" opacity="0.9"/><path d="M391.64 312h2.34l-1.17 4z" stroke-width="1" fill="#172238"/><rect x="396.31" y="184" width="2.34" height="128" fill="#172238" opacity="0.9"/><path d="M396.31 312h2.34l-1.17 4z" stroke-width="1" fill="#172238"/><rect x="400.98" y="184" width="2.34" height="128" fill="#172238" opacity="0.9"/><path d="M400.98 312h2.34l-1.17 4z" stroke-width="1" fill="#172238"/><rect x="405.65" y="184" width="2.34" height="128" fill="#172238" opacity="0.9"/><path d="M405.65 312h2.34l-1.17 4z" stroke-width="1" fill="#172238"/><rect x="410.32" y="184" width="2.34" height="128" fill="#172238" opacity="0.9"/><path d="M410.32 312h2.34l-1.17 4z" stroke-width="1" fill="#172238"/><rect x="414.99" y="184" width="2.34" height="128" fill="#172238" opacity="0.9"/><path d="M414.99 312h2.34l-1.17 4z" stroke-width="1" fill="#172238"/><rect x="419.66" y="184" width="2.34" height="128" fill="#172238" opacity="0.9"/><path d="M419.66 312h2.34l-1.17 4z" stroke-width="1" fill="#172238"/><rect x="424.34" y="184" width="2.34" height="128" fill="#172238" opacity="0.9"/><path d="M424.34 312h2.34l-1.17 4z" stroke-width="1" fill="#172238"/><rect x="429.01" y="184" width="2.34" height="128" fill="#172238" opacity="0.9"/><path d="M429.01 312h2.34l-1.17 4z" stroke-width="1" fill="#172238"/><rect x="433.68" y="184" width="2.34" height="128" fill="#172238" opacity="0.9"/><path d="M433.68 312h2.34l-1.17 4z" stroke-width="1" fill="#172238"/><rect x="438.35" y="184" width="2.34" height="128" fill="#172238" opacity="0.9"/><path d="M438.35 312h2.34l-1.17 4z" stroke-width="1" fill="#172238"/><rect x="443.02" y="184" width="2.34" height="128" fill="#172238" opacity="0.9"/><path d="M443.02 312h2.34l-1.17 4z" stroke-width="1" fill="#172238"/><rect x="447.69" y="184" width="2.34" height="128" fill="#172238" opacity="0.9"/><path d="M447.69 312h2.34l-1.17 4z" stroke-width="1" fill="#172238"/><rect x="452.36" y="184" width="2.34" height="128" fill="#172238" opacity="0.9"/><path d="M452.36 312h2.34l-1.17 4z" stroke-width="1" fill="#172238"/><rect x="457.03" y="184" width="2.34" height="128" fill="#172238" opacity="0.9"/><path d="M457.03 312h2.34l-1.17 4z" stroke-width="1" fill="#172238"/><rect x="461.7" y="184" width="2.34" height="128" fill="#172238" opacity="0.9"/><path d="M461.7 312h2.34l-1.17 4z" stroke-width="1" fill="#172238"/><rect x="466.38" y="184" width="2.34" height="128" fill="#172238" opacity="0.9"/><path d="M466.38 312h2.34l-1.17 4z" stroke-width="1" fill="#172238"/><rect x="471.05" y="184" width="2.34" height="128" fill="#172238" opacity="0.9"/><path d="M471.05 312h2.34l-1.17 4z" stroke-width="1" fill="#172238"/><rect x="475.72" y="184" width="2.34" height="128" fill="#172238" opacity="0.9"/><path d="M475.72 312h2.34l-1.17 4z" stroke-width="1" fill="#172238"/><rect x="480.39" y="184" width="2.34" height="128" fill="#172238" opacity="0.9"/><path d="M480.39 312h2.34l-1.17 4z" stroke-width="1" fill="#172238"/><rect x="485.06" y="184" width="2.34" height="128" fill="#172238" opacity="0.9"/><path d="M485.06 312h2.34l-1.17 4z" stroke-width="1" fill="#172238"/><rect x="489.73" y="184" width="2.34" height="128" fill="#172238" opacity="0.9"/><path d="M489.73 312h2.34l-1.17 4z" stroke-width="1" fill="#172238"/><rect x="494.4" y="184" width="2.34" height="128" fill="#172238" opacity="0.9"/><path d="M494.4 312h2.34l-1.17 4z" stroke-width="1" fill="#172238"/><rect x="499.07" y="184" width="2.34" height="128" fill="#172238" opacity="0.9"/><path d="M499.07 312h2.34l-1.17 4z" stroke-width="1" fill="#172238"/><rect x="503.74" y="184" width="2.34" height="128" fill="#172238" opacity="0.9"/><path d="M503.74 312h2.34l-1.17 4z" stroke-width="1" fill="#172238"/><rect x="508.42" y="184" width="2.34" height="128" fill="#172238" opacity="0.9"/><path d="M508.42 312h2.34l-1.17 4z" stroke-width="1" fill="#172238"/><rect x="513.09" y="184" width="2.34" height="128" fill="#172238" opacity="0.9"/><path d="M513.09 312h2.34l-1.17 4z" stroke-width="1" fill="#172238"/><rect x="517.76" y="184" width="2.34" height="128" fill="#172238" opacity="0.9"/><path d="M517.76 312h2.34l-1.17 4z" stroke-width="1" fill="#172238"/><rect x="522.43" y="184" width="2.34" height="128" fill="#172238" opacity="0.9"/><path d="M522.43 312h2.34l-1.17 4z" stroke-width="1" fill="#172238"/><rect x="527.1" y="184" width="2.34" height="128" fill="#172238" opacity="0.9"/><path d="M527.1 312h2.34l-1.17 4z" stroke-width="1" fill="#172238"/><rect x="531.77" y="184" width="2.34" height="128" fill="#172238" opacity="0.9"/><path d="M531.77 312h2.34l-1.17 4z" stroke-width="1" fill="#172238"/><rect x="536.44" y="184" width="2.34" height="128" fill="#172238" opacity="0.9"/><path d="M536.44 312h2.34l-1.17 4z" stroke-width="1" fill="#172238"/><rect x="541.11" y="184" width="2.34" height="128" fill="#172238" opacity="0.9"/><path d="M541.11 312h2.34l-1.17 4z" stroke-width="1" fill="#172238"/><rect x="545.79" y="184" width="2.34" height="128" fill="#172238" opacity="0.9"/><path d="M545.79 312h2.34l-1.17 4z" stroke-width="1" fill="#172238"/><rect x="550.46" y="184" width="2.34" height="128" fill="#172238" opacity="0.9"/><path d="M550.46 312h2.34l-1.17 4z" stroke-width="1" fill="#172238"/><rect x="555.13" y="184" width="2.34" height="128" fill="#172238" opacity="0.9"/><path d="M555.13 312h2.34l-1.17 4z" stroke-width="1" fill="#172238"/><rect x="559.8" y="184" width="2.34" height="128" fill="#172238" opacity="0.9"/><path d="M559.8 312h2.34l-1.17 4z" stroke-width="1" fill="#172238"/><rect x="564.47" y="184" width="2.34" height="128" fill="#172238" opacity="0.9"/><path d="M564.47 312h2.34l-1.17 4z" stroke-width="1" fill="#172238"/><rect x="569.14" y="184" width="2.34" height="128" fill="#172238" opacity="0.9"/><path d="M569.14 312h2.34l-1.17 4z" stroke-width="1" fill="#172238"/><rect x="573.81" y="184" width="2.34" height="128" fill="#172238" opacity="0.9"/><path d="M573.81 312h2.34l-1.17 4z" stroke-width="1" fill="#172238"/><rect x="578.48" y="184" width="2.34" height="128" fill="#172238" opacity="0.9"/><path d="M578.48 312h2.34l-1.17 4z" stroke-width="1" fill="#172238"/><rect x="583.15" y="184" width="2.34" height="128" fill="#172238" opacity="0.9"/><path d="M583.15 312h2.34l-1.17 4z" stroke-width="1" fill="#172238"/><rect x="587.83" y="184" width="2.34" height="128" fill="#172238" opacity="0.9"/><path d="M587.83 312h2.34l-1.17 4z" stroke-width="1" fill="#172238"/><rect x="592.5" y="184" width="2.34" height="128" fill="#172238" opacity="0.9"/><path d="M592.5 312h2.34l-1.17 4z" stroke-width="1" fill="#172238"/><rect x="597.17" y="184" width="2.34" height="128" fill="#172238" opacity="0.9"/><path d="M597.17 312h2.34l-1.17 4z" stroke-width="1" fill="#172238"/><rect x="601.84" y="184" width="2.34" height="128" fill="#172238" opacity="0.9"/><path d="M601.84 312h2.34l-1.17 4z" stroke-width="1" fill="#172238"/><rect x="606.51" y="184" width="2.34" height="128" fill="#172238" opacity="0.9"/><path d="M606.51 312h2.34l-1.17 4z" stroke-width="1" fill="#172238"/><rect x="611.18" y="184" width="2.34" height="128" fill="#172238" opacity="0.9"/><path d="M611.18 312h2.34l-1.17 4z" stroke-width="1" fill="#172238"/><rect x="615.85" y="184" width="2.34" height="128" fill="#172238" opacity="0.9"/><path d="M615.85 312h2.34l-1.17 4z" stroke-width="1" fill="#172238"/><rect x="620.52" y="184" width="2.34" height="128" fill="#172238" opacity="0.9"/><path d="M620.52 312h2.34l-1.17 4z" stroke-width="1" fill="#172238"/><rect x="625.19" y="184" width="2.34" height="128" fill="#172238" opacity="0.9"/><path d="M625.19 312h2.34l-1.17 4z" stroke-width="1" fill="#172238"/><rect x="629.87" y="184" width="2.34" height="128" fill="#172238" opacity="0.9"/><path d="M629.87 312h2.34l-1.17 4z" stroke-width="1" fill="#172238"/><rect x="634.54" y="184" width="2.34" height="128" fill="#172238" opacity="0.9"/><path d="M634.54 312h2.34l-1.17 4z" stroke-width="1" fill="#172238"/><rect x="639.21" y="184" width="2.34" height="128" fill="#172238" opacity="0.9"/><path d="M639.21 312h2.34l-1.17 4z" stroke-width="1" fill="#172238"/><rect x="643.88" y="184" width="2.34" height="128" fill="#172238" opacity="0.9"/><path d="M643.88 312h2.34l-1.17 4z" stroke-width="1" fill="#172238"/><rect x="648.55" y="184" width="2.34" height="128" fill="#172238" opacity="0.9"/><path d="M648.55 312h2.34l-1.17 4z" stroke-width="1" fill="#172238"/><rect x="653.22" y="184" width="2.34" height="128" fill="#172238" opacity="0.9"/><path d="M653.22 312h2.34l-1.17 4z" stroke-width="1" fill="#172238"/><rect x="657.89" y="184" width="2.34" height="128" fill="#172238" opacity="0.9"/><path d="M657.89 312h2.34l-1.17 4z" stroke-width="1" fill="#172238"/><rect x="450.16" y="322" width="76.8" height="16" fill="#F7F5EF"/><text x="488.56" y="334" fill="#172238" font-size="10" text-anchor="middle" font-weight="800" letter-spacing="1.5" class="m">MEDIUM 74</text><rect x="684.56" y="184" width="2.34" height="192" fill="#172238" opacity="0.9"/><path d="M684.56 376h2.34l-1.17 4z" stroke-width="1" fill="#172238"/><rect x="689.23" y="184" width="2.34" height="192" fill="#172238" opacity="0.9"/><path d="M689.23 376h2.34l-1.17 4z" stroke-width="1" fill="#172238"/><rect x="693.91" y="184" width="2.34" height="192" fill="#172238" opacity="0.9"/><path d="M693.91 376h2.34l-1.17 4z" stroke-width="1" fill="#172238"/><rect x="698.58" y="184" width="2.34" height="192" fill="#172238" opacity="0.9"/><path d="M698.58 376h2.34l-1.17 4z" stroke-width="1" fill="#172238"/><rect x="703.25" y="184" width="2.34" height="192" fill="#172238" opacity="0.9"/><path d="M703.25 376h2.34l-1.17 4z" stroke-width="1" fill="#172238"/><rect x="707.92" y="184" width="2.34" height="192" fill="#172238" opacity="0.9"/><path d="M707.92 376h2.34l-1.17 4z" stroke-width="1" fill="#172238"/><rect x="712.59" y="184" width="2.34" height="192" fill="#172238" opacity="0.9"/><path d="M712.59 376h2.34l-1.17 4z" stroke-width="1" fill="#172238"/><rect x="717.26" y="184" width="2.34" height="192" fill="#172238" opacity="0.9"/><path d="M717.26 376h2.34l-1.17 4z" stroke-width="1" fill="#172238"/><rect x="721.93" y="184" width="2.34" height="192" fill="#172238" opacity="0.9"/><path d="M721.93 376h2.34l-1.17 4z" stroke-width="1" fill="#172238"/><rect x="726.6" y="184" width="2.34" height="192" fill="#172238" opacity="0.9"/><path d="M726.6 376h2.34l-1.17 4z" stroke-width="1" fill="#172238"/><rect x="731.28" y="184" width="2.34" height="192" fill="#172238" opacity="0.9"/><path d="M731.28 376h2.34l-1.17 4z" stroke-width="1" fill="#172238"/><rect x="735.95" y="184" width="2.34" height="192" fill="#172238" opacity="0.9"/><path d="M735.95 376h2.34l-1.17 4z" stroke-width="1" fill="#172238"/><rect x="740.62" y="184" width="2.34" height="192" fill="#172238" opacity="0.9"/><path d="M740.62 376h2.34l-1.17 4z" stroke-width="1" fill="#172238"/><rect x="745.29" y="184" width="2.34" height="192" fill="#172238" opacity="0.9"/><path d="M745.29 376h2.34l-1.17 4z" stroke-width="1" fill="#172238"/><rect x="749.96" y="184" width="2.34" height="192" fill="#172238" opacity="0.9"/><path d="M749.96 376h2.34l-1.17 4z" stroke-width="1" fill="#172238"/><rect x="754.63" y="184" width="2.34" height="192" fill="#172238" opacity="0.9"/><path d="M754.63 376h2.34l-1.17 4z" stroke-width="1" fill="#172238"/><rect x="759.3" y="184" width="2.34" height="192" fill="#172238" opacity="0.9"/><path d="M759.3 376h2.34l-1.17 4z" stroke-width="1" fill="#172238"/><rect x="763.97" y="184" width="2.34" height="192" fill="#172238" opacity="0.9"/><path d="M763.97 376h2.34l-1.17 4z" stroke-width="1" fill="#172238"/><rect x="768.64" y="184" width="2.34" height="192" fill="#172238" opacity="0.9"/><path d="M768.64 376h2.34l-1.17 4z" stroke-width="1" fill="#172238"/><rect x="773.32" y="184" width="2.34" height="192" fill="#172238" opacity="0.9"/><path d="M773.32 376h2.34l-1.17 4z" stroke-width="1" fill="#172238"/><rect x="777.99" y="184" width="2.34" height="192" fill="#172238" opacity="0.9"/><path d="M777.99 376h2.34l-1.17 4z" stroke-width="1" fill="#172238"/><rect x="782.66" y="184" width="2.34" height="192" fill="#172238" opacity="0.9"/><path d="M782.66 376h2.34l-1.17 4z" stroke-width="1" fill="#172238"/><rect x="787.33" y="184" width="2.34" height="192" fill="#172238" opacity="0.9"/><path d="M787.33 376h2.34l-1.17 4z" stroke-width="1" fill="#172238"/><rect x="705.91" y="386" width="62.4" height="16" fill="#F7F5EF"/><text x="737.11" y="398" fill="#172238" font-size="10" text-anchor="middle" font-weight="800" letter-spacing="1.5" class="m">HARD 23</text><line x1="816" y1="184" x2="816" y2="376" stroke="#55637C" stroke-width="0.8"/><line x1="811" y1="248" x2="821" y2="248" stroke="#55637C" stroke-width="0.8"/><text x="826" y="252" fill="#55637C" font-size="9" class="m">1×</text><line x1="811" y1="312" x2="821" y2="312" stroke="#55637C" stroke-width="0.8"/><text x="826" y="316" fill="#55637C" font-size="9" class="m">2×</text><line x1="811" y1="376" x2="821" y2="376" stroke="#55637C" stroke-width="0.8"/><text x="826" y="380" fill="#55637C" font-size="9" class="m">3×</text><line x1="811" y1="184" x2="821" y2="184" stroke="#55637C" stroke-width="0.8"/><text x="44" y="426" fill="#55637C" font-size="8.5" letter-spacing="2" class="m">POUR LOG</text><text x="120" y="426" fill="#55637C" font-size="9" class="m">submissions per day · 90 days to 2026-10-10</text><line x1="44" y1="474" x2="836" y2="474" stroke="#B7BFCD" stroke-width="1"/><rect x="45.4" y="472.5" width="6" height="1.5" fill="#B7BFCD"/><rect x="54.2" y="472.5" width="6" height="1.5" fill="#B7BFCD"/><rect x="63" y="472.5" width="6" height="1.5" fill="#B7BFCD"/><rect x="71.8" y="472.5" width="6" height="1.5" fill="#B7BFCD"/><rect x="80.6" y="472.5" width="6" height="1.5" fill="#B7BFCD"/><rect x="89.4" y="472.5" width="6" height="1.5" fill="#B7BFCD"/><rect x="98.2" y="472.5" width="6" height="1.5" fill="#B7BFCD"/><rect x="107" y="472.5" width="6" height="1.5" fill="#B7BFCD"/><rect x="115.8" y="472.5" width="6" height="1.5" fill="#B7BFCD"/><rect x="124.6" y="472.5" width="6" height="1.5" fill="#B7BFCD"/><rect x="133.4" y="472.5" width="6" height="1.5" fill="#B7BFCD"/><rect x="142.2" y="465.5" width="6" height="8.5" fill="#172238" opacity="0.9"/><rect x="151" y="472.5" width="6" height="1.5" fill="#B7BFCD"/><rect x="159.8" y="472.5" width="6" height="1.5" fill="#B7BFCD"/><rect x="168.6" y="472.5" width="6" height="1.5" fill="#B7BFCD"/><rect x="177.4" y="472.5" width="6" height="1.5" fill="#B7BFCD"/><rect x="186.2" y="472.5" width="6" height="1.5" fill="#B7BFCD"/><rect x="195" y="472.5" width="6" height="1.5" fill="#B7BFCD"/><rect x="203.8" y="472.5" width="6" height="1.5" fill="#B7BFCD"/><rect x="212.6" y="463" width="6" height="11" fill="#172238" opacity="0.9"/><line x1="212.6" y1="474" x2="212.6" y2="480" stroke="#55637C" stroke-width="0.8"/><text x="214.6" y="490" fill="#55637C" font-size="8.5" class="m">AUG</text><rect x="221.4" y="455.5" width="6" height="18.5" fill="#172238" opacity="0.9"/><rect x="230.2" y="458" width="6" height="16" fill="#172238" opacity="0.9"/><rect x="239" y="458" width="6" height="16" fill="#172238" opacity="0.9"/><rect x="247.8" y="455.5" width="6" height="18.5" fill="#172238" opacity="0.9"/><rect x="256.6" y="453" width="6" height="21" fill="#172238" opacity="0.9"/><rect x="265.4" y="445.5" width="6" height="28.5" fill="#172238" opacity="0.9"/><rect x="274.2" y="463" width="6" height="11" fill="#172238" opacity="0.9"/><rect x="283" y="458" width="6" height="16" fill="#172238" opacity="0.9"/><rect x="291.8" y="460.5" width="6" height="13.5" fill="#172238" opacity="0.9"/><rect x="300.6" y="455.5" width="6" height="18.5" fill="#172238" opacity="0.9"/><rect x="309.4" y="458" width="6" height="16" fill="#172238" opacity="0.9"/><rect x="318.2" y="458" width="6" height="16" fill="#172238" opacity="0.9"/><rect x="327" y="453" width="6" height="21" fill="#172238" opacity="0.9"/><rect x="335.8" y="458" width="6" height="16" fill="#172238" opacity="0.9"/><rect x="344.6" y="453" width="6" height="21" fill="#172238" opacity="0.9"/><rect x="353.4" y="450.5" width="6" height="23.5" fill="#172238" opacity="0.9"/><rect x="362.2" y="450.5" width="6" height="23.5" fill="#172238" opacity="0.9"/><rect x="371" y="445.5" width="6" height="28.5" fill="#172238" opacity="0.9"/><rect x="379.8" y="453" width="6" height="21" fill="#172238" opacity="0.9"/><rect x="388.6" y="453" width="6" height="21" fill="#172238" opacity="0.9"/><rect x="397.4" y="455.5" width="6" height="18.5" fill="#172238" opacity="0.9"/><rect x="406.2" y="465.5" width="6" height="8.5" fill="#172238" opacity="0.9"/><rect x="415" y="458" width="6" height="16" fill="#172238" opacity="0.9"/><rect x="423.8" y="472.5" width="6" height="1.5" fill="#B7BFCD"/><rect x="432.6" y="448" width="6" height="26" fill="#172238" opacity="0.9"/><rect x="441.4" y="450.5" width="6" height="23.5" fill="#172238" opacity="0.9"/><rect x="450.2" y="458" width="6" height="16" fill="#172238" opacity="0.9"/><rect x="459" y="460.5" width="6" height="13.5" fill="#172238" opacity="0.9"/><rect x="467.8" y="460.5" width="6" height="13.5" fill="#172238" opacity="0.9"/><rect x="476.6" y="465.5" width="6" height="8.5" fill="#172238" opacity="0.9"/><rect x="485.4" y="460.5" width="6" height="13.5" fill="#172238" opacity="0.9"/><line x1="485.4" y1="474" x2="485.4" y2="480" stroke="#55637C" stroke-width="0.8"/><text x="487.4" y="490" fill="#55637C" font-size="8.5" class="m">SEP</text><rect x="494.2" y="453" width="6" height="21" fill="#172238" opacity="0.9"/><rect x="503" y="460.5" width="6" height="13.5" fill="#172238" opacity="0.9"/><rect x="511.8" y="463" width="6" height="11" fill="#172238" opacity="0.9"/><rect x="520.6" y="460.5" width="6" height="13.5" fill="#172238" opacity="0.9"/><rect x="529.4" y="460.5" width="6" height="13.5" fill="#172238" opacity="0.9"/><rect x="538.2" y="460.5" width="6" height="13.5" fill="#172238" opacity="0.9"/><rect x="547" y="460.5" width="6" height="13.5" fill="#172238" opacity="0.9"/><rect x="555.8" y="458" width="6" height="16" fill="#172238" opacity="0.9"/><rect x="564.6" y="465.5" width="6" height="8.5" fill="#172238" opacity="0.9"/><rect x="573.4" y="463" width="6" height="11" fill="#172238" opacity="0.9"/><rect x="582.2" y="465.5" width="6" height="8.5" fill="#172238" opacity="0.9"/><rect x="591" y="465.5" width="6" height="8.5" fill="#172238" opacity="0.9"/><rect x="599.8" y="443" width="6" height="31" fill="#172238" opacity="0.9"/><rect x="608.6" y="463" width="6" height="11" fill="#172238" opacity="0.9"/><rect x="617.4" y="463" width="6" height="11" fill="#172238" opacity="0.9"/><rect x="626.2" y="465.5" width="6" height="8.5" fill="#172238" opacity="0.9"/><rect x="635" y="463" width="6" height="11" fill="#172238" opacity="0.9"/><rect x="643.8" y="463" width="6" height="11" fill="#172238" opacity="0.9"/><rect x="652.6" y="453" width="6" height="21" fill="#172238" opacity="0.9"/><rect x="661.4" y="465.5" width="6" height="8.5" fill="#172238" opacity="0.9"/><rect x="670.2" y="472.5" width="6" height="1.5" fill="#B7BFCD"/><rect x="679" y="458" width="6" height="16" fill="#172238" opacity="0.9"/><rect x="687.8" y="463" width="6" height="11" fill="#172238" opacity="0.9"/><rect x="696.6" y="463" width="6" height="11" fill="#172238" opacity="0.9"/><rect x="705.4" y="472.5" width="6" height="1.5" fill="#B7BFCD"/><rect x="714.2" y="460.5" width="6" height="13.5" fill="#172238" opacity="0.9"/><rect x="723" y="463" width="6" height="11" fill="#172238" opacity="0.9"/><rect x="731.8" y="463" width="6" height="11" fill="#172238" opacity="0.9"/><rect x="740.6" y="463" width="6" height="11" fill="#172238" opacity="0.9"/><rect x="749.4" y="460.5" width="6" height="13.5" fill="#172238" opacity="0.9"/><line x1="749.4" y1="474" x2="749.4" y2="480" stroke="#55637C" stroke-width="0.8"/><text x="751.4" y="490" fill="#55637C" font-size="8.5" class="m">OCT</text><rect x="758.2" y="458" width="6" height="16" fill="#172238" opacity="0.9"/><rect x="767" y="465.5" width="6" height="8.5" fill="#172238" opacity="0.9"/><rect x="775.8" y="463" width="6" height="11" fill="#172238" opacity="0.9"/><rect x="784.6" y="465.5" width="6" height="8.5" fill="#172238" opacity="0.9"/><rect x="793.4" y="458" width="6" height="16" fill="#172238" opacity="0.9"/><rect x="802.2" y="465.5" width="6" height="8.5" fill="#172238" opacity="0.9"/><rect x="811" y="463" width="6" height="11" fill="#172238" opacity="0.9"/><rect x="819.8" y="472.5" width="6" height="1.5" fill="#B7BFCD"/><rect x="828.6" y="453" width="6" height="21" fill="#B86A04" opacity="0.9"/><text x="44" y="516" fill="#172238" font-size="10.5" class="m">ACTIVE DAYS 68 IN 2026   ·   MAX STREAK 27   ·   SOLVED IN  Python3 100 · C++ 50</text><rect x="16" y="536" width="848" height="48" fill="#F7F5EF" stroke="#172238" stroke-width="1.2"/><text x="24" y="548.5" fill="#55637C" font-size="7.5" letter-spacing="1.3" class="m">SOURCE</text><text x="24" y="574" fill="#172238" font-size="11" font-weight="700" class="m">leetcode.com/u/Tusharr_07 · public API</text><line x1="296" y1="536" x2="296" y2="584" stroke="#172238" stroke-width="0.8"/><text x="304" y="548.5" fill="#55637C" font-size="7.5" letter-spacing="1.3" class="m">LAST ACTIVE</text><text x="304" y="574" fill="#172238" font-size="12" font-weight="700" class="m">2026-10-10</text><line x1="412" y1="536" x2="412" y2="584" stroke="#172238" stroke-width="0.8"/><text x="420" y="548.5" fill="#55637C" font-size="7.5" letter-spacing="1.3" class="m">PRACTICE REPO</text><text x="420" y="574" fill="#172238" font-size="11" font-weight="700" class="m">DSA-in-Cpp · 21 C++ files</text><line x1="626" y1="536" x2="626" y2="584" stroke="#172238" stroke-width="0.8"/><text x="634" y="548.5" fill="#55637C" font-size="7.5" letter-spacing="1.3" class="m">REV</text><text x="634" y="574" fill="#B86A04" font-size="12" font-weight="700" class="m">02</text><line x1="686" y1="536" x2="686" y2="584" stroke="#172238" stroke-width="0.8"/><text x="694" y="548.5" fill="#55637C" font-size="7.5" letter-spacing="1.3" class="m">SHEET</text><text x="694" y="574" fill="#172238" font-size="19" font-weight="700" class="m">S-201</text></svg>
