<svg xmlns="http://www.w3.org/2000/svg" width="880" height="600" viewBox="0 0 880 600" role="img" aria-label="Sheet S-201: foundation plan. 139 accepted LeetCode problems drawn as piles: 51 easy, 67 medium, 21 hard, plus a 90-day activity log."><title>Sheet S-201: foundation plan. 139 accepted LeetCode problems drawn as piles: 51 easy, 67 medium, 21 hard, plus a 90-day activity log.</title><style>.m{font-family:ui-monospace,SFMono-Regular,'SF Mono','Cascadia Mono',Consolas,'Liberation Mono',Menlo,monospace}.s{font-family:-apple-system,BlinkMacSystemFont,'Segoe UI','Helvetica Neue',Helvetica,Arial,sans-serif}</style><defs>
<pattern id="g1" width="20" height="20" patternUnits="userSpaceOnUse"><path d="M20 0H0V20" fill="none" stroke="#0F2039"/></pattern>
<pattern id="g2" width="100" height="100" patternUnits="userSpaceOnUse"><rect width="100" height="100" fill="url(#g1)"/><path d="M100 0H0V100" fill="none" stroke="#152A4B"/></pattern>
<pattern id="wip" width="8" height="8" patternUnits="userSpaceOnUse" patternTransform="rotate(-45)"><line y2="8" stroke="#F5A623" stroke-width="1.2" opacity=".35"/></pattern>
<pattern id="earth" width="9" height="9" patternUnits="userSpaceOnUse" patternTransform="rotate(-45)"><line y2="9" stroke="#34507E" stroke-width=".8"/></pattern>
<pattern id="concrete" width="18" height="18" patternUnits="userSpaceOnUse"><g fill="#2E4A7A"><circle cx="3" cy="4" r="1.1"/><circle cx="12" cy="11" r=".8"/><circle cx="15" cy="3" r=".6"/><circle cx="6" cy="15" r=".7"/></g><g fill="none" stroke="#2E4A7A" stroke-width=".8"><path d="M9 3l2.2 3.6H6.8z"/><path d="M2 9.5l2 3.2H0z"/><path d="M13 14l2 3.2h-4z"/></g></pattern>
<filter id="stampink"><feTurbulence type="fractalNoise" baseFrequency=".8" numOctaves="2" seed="7" result="n"/><feColorMatrix in="n" values="0 0 0 0 0 0 0 0 0 0 0 0 0 0 0 0 0 0 -4 3.2" result="m"/><feComposite in="SourceGraphic" in2="m" operator="in"/></filter>
</defs><rect x="0" y="0" width="880" height="600" fill="#0A1526" rx="12"/><rect x="0" y="0" width="880" height="600" fill="url(#g2)" rx="12" opacity="0.75"/><rect x="16" y="16" width="848" height="568" fill="none" stroke="#DCE7FF" stroke-width="1.3" opacity="0.8"/><text x="69" y="11.5" fill="#8DA1C6" font-size="8" text-anchor="middle" class="m">1</text><text x="69" y="595.5" fill="#8DA1C6" font-size="8" text-anchor="middle" class="m">1</text><text x="175" y="11.5" fill="#8DA1C6" font-size="8" text-anchor="middle" class="m">2</text><text x="175" y="595.5" fill="#8DA1C6" font-size="8" text-anchor="middle" class="m">2</text><line x1="122" y1="16" x2="122" y2="11" stroke="#8DA1C6" stroke-width="0.7"/><line x1="122" y1="584" x2="122" y2="589" stroke="#8DA1C6" stroke-width="0.7"/><text x="281" y="11.5" fill="#8DA1C6" font-size="8" text-anchor="middle" class="m">3</text><text x="281" y="595.5" fill="#8DA1C6" font-size="8" text-anchor="middle" class="m">3</text><line x1="228" y1="16" x2="228" y2="11" stroke="#8DA1C6" stroke-width="0.7"/><line x1="228" y1="584" x2="228" y2="589" stroke="#8DA1C6" stroke-width="0.7"/><text x="387" y="11.5" fill="#8DA1C6" font-size="8" text-anchor="middle" class="m">4</text><text x="387" y="595.5" fill="#8DA1C6" font-size="8" text-anchor="middle" class="m">4</text><line x1="334" y1="16" x2="334" y2="11" stroke="#8DA1C6" stroke-width="0.7"/><line x1="334" y1="584" x2="334" y2="589" stroke="#8DA1C6" stroke-width="0.7"/><text x="493" y="11.5" fill="#8DA1C6" font-size="8" text-anchor="middle" class="m">5</text><text x="493" y="595.5" fill="#8DA1C6" font-size="8" text-anchor="middle" class="m">5</text><line x1="440" y1="16" x2="440" y2="11" stroke="#8DA1C6" stroke-width="0.7"/><line x1="440" y1="584" x2="440" y2="589" stroke="#8DA1C6" stroke-width="0.7"/><text x="599" y="11.5" fill="#8DA1C6" font-size="8" text-anchor="middle" class="m">6</text><text x="599" y="595.5" fill="#8DA1C6" font-size="8" text-anchor="middle" class="m">6</text><line x1="546" y1="16" x2="546" y2="11" stroke="#8DA1C6" stroke-width="0.7"/><line x1="546" y1="584" x2="546" y2="589" stroke="#8DA1C6" stroke-width="0.7"/><text x="705" y="11.5" fill="#8DA1C6" font-size="8" text-anchor="middle" class="m">7</text><text x="705" y="595.5" fill="#8DA1C6" font-size="8" text-anchor="middle" class="m">7</text><line x1="652" y1="16" x2="652" y2="11" stroke="#8DA1C6" stroke-width="0.7"/><line x1="652" y1="584" x2="652" y2="589" stroke="#8DA1C6" stroke-width="0.7"/><text x="811" y="11.5" fill="#8DA1C6" font-size="8" text-anchor="middle" class="m">8</text><text x="811" y="595.5" fill="#8DA1C6" font-size="8" text-anchor="middle" class="m">8</text><line x1="758" y1="16" x2="758" y2="11" stroke="#8DA1C6" stroke-width="0.7"/><line x1="758" y1="584" x2="758" y2="589" stroke="#8DA1C6" stroke-width="0.7"/><text x="8" y="90" fill="#8DA1C6" font-size="8" text-anchor="middle" class="m">A</text><text x="872" y="90" fill="#8DA1C6" font-size="8" text-anchor="middle" class="m">A</text><text x="8" y="232" fill="#8DA1C6" font-size="8" text-anchor="middle" class="m">B</text><text x="872" y="232" fill="#8DA1C6" font-size="8" text-anchor="middle" class="m">B</text><line x1="16" y1="158" x2="11" y2="158" stroke="#8DA1C6" stroke-width="0.7"/><line x1="864" y1="158" x2="869" y2="158" stroke="#8DA1C6" stroke-width="0.7"/><text x="8" y="374" fill="#8DA1C6" font-size="8" text-anchor="middle" class="m">C</text><text x="872" y="374" fill="#8DA1C6" font-size="8" text-anchor="middle" class="m">C</text><line x1="16" y1="300" x2="11" y2="300" stroke="#8DA1C6" stroke-width="0.7"/><line x1="864" y1="300" x2="869" y2="300" stroke="#8DA1C6" stroke-width="0.7"/><text x="8" y="516" fill="#8DA1C6" font-size="8" text-anchor="middle" class="m">D</text><text x="872" y="516" fill="#8DA1C6" font-size="8" text-anchor="middle" class="m">D</text><line x1="16" y1="442" x2="11" y2="442" stroke="#8DA1C6" stroke-width="0.7"/><line x1="864" y1="442" x2="869" y2="442" stroke="#8DA1C6" stroke-width="0.7"/><text x="36" y="42" fill="#8DA1C6" font-size="9.5" letter-spacing="1.6" class="m">DRAWING SET TJ  ·  SHEET S-201  ·  FOUNDATION PLAN</text><text x="844" y="42" fill="#8DA1C6" font-size="9.5" text-anchor="end" letter-spacing="1.6" class="m">SCALE: NTS</text><line x1="36" y1="52" x2="844" y2="52" stroke="#34507E" stroke-width="0.8"/><text x="42" y="100" fill="#DCE7FF" font-size="28" font-weight="800" class="s">FOUNDATION — DSA</text><text x="44" y="124" fill="#8DA1C6" font-size="11.5" class="m">one pile per accepted LeetCode problem · pile depth = difficulty</text><text x="836" y="106" fill="#DCE7FF" font-size="48" text-anchor="end" font-weight="800" class="s">139</text><text x="836" y="126" fill="#8DA1C6" font-size="9" text-anchor="end" letter-spacing="2" class="m">PILES DRIVEN</text><text x="422" y="166" fill="#8DA1C6" font-size="8.5" text-anchor="middle" letter-spacing="2" class="m">EVERYTHING ELSE ON THESE SHEETS STANDS ON THIS</text><rect x="44" y="184" width="792" height="214" fill="url(#earth)"/><rect x="44" y="176" width="756" height="8" fill="#DCE7FF"/><rect x="52" y="184" width="2.5" height="64" fill="#DCE7FF" opacity="0.9"/><path d="M52 248h2.5l-1.25 4z" stroke-width="1" fill="#DCE7FF"/><rect x="57.01" y="184" width="2.5" height="64" fill="#DCE7FF" opacity="0.9"/><path d="M57.01 248h2.5l-1.25 4z" stroke-width="1" fill="#DCE7FF"/><rect x="62.01" y="184" width="2.5" height="64" fill="#DCE7FF" opacity="0.9"/><path d="M62.01 248h2.5l-1.25 4z" stroke-width="1" fill="#DCE7FF"/><rect x="67.02" y="184" width="2.5" height="64" fill="#DCE7FF" opacity="0.9"/><path d="M67.02 248h2.5l-1.25 4z" stroke-width="1" fill="#DCE7FF"/><rect x="72.03" y="184" width="2.5" height="64" fill="#DCE7FF" opacity="0.9"/><path d="M72.03 248h2.5l-1.25 4z" stroke-width="1" fill="#DCE7FF"/><rect x="77.04" y="184" width="2.5" height="64" fill="#DCE7FF" opacity="0.9"/><path d="M77.04 248h2.5l-1.25 4z" stroke-width="1" fill="#DCE7FF"/><rect x="82.04" y="184" width="2.5" height="64" fill="#DCE7FF" opacity="0.9"/><path d="M82.04 248h2.5l-1.25 4z" stroke-width="1" fill="#DCE7FF"/><rect x="87.05" y="184" width="2.5" height="64" fill="#DCE7FF" opacity="0.9"/><path d="M87.05 248h2.5l-1.25 4z" stroke-width="1" fill="#DCE7FF"/><rect x="92.06" y="184" width="2.5" height="64" fill="#DCE7FF" opacity="0.9"/><path d="M92.06 248h2.5l-1.25 4z" stroke-width="1" fill="#DCE7FF"/><rect x="97.06" y="184" width="2.5" height="64" fill="#DCE7FF" opacity="0.9"/><path d="M97.06 248h2.5l-1.25 4z" stroke-width="1" fill="#DCE7FF"/><rect x="102.07" y="184" width="2.5" height="64" fill="#DCE7FF" opacity="0.9"/><path d="M102.07 248h2.5l-1.25 4z" stroke-width="1" fill="#DCE7FF"/><rect x="107.08" y="184" width="2.5" height="64" fill="#DCE7FF" opacity="0.9"/><path d="M107.08 248h2.5l-1.25 4z" stroke-width="1" fill="#DCE7FF"/><rect x="112.09" y="184" width="2.5" height="64" fill="#DCE7FF" opacity="0.9"/><path d="M112.09 248h2.5l-1.25 4z" stroke-width="1" fill="#DCE7FF"/><rect x="117.09" y="184" width="2.5" height="64" fill="#DCE7FF" opacity="0.9"/><path d="M117.09 248h2.5l-1.25 4z" stroke-width="1" fill="#DCE7FF"/><rect x="122.1" y="184" width="2.5" height="64" fill="#DCE7FF" opacity="0.9"/><path d="M122.1 248h2.5l-1.25 4z" stroke-width="1" fill="#DCE7FF"/><rect x="127.11" y="184" width="2.5" height="64" fill="#DCE7FF" opacity="0.9"/><path d="M127.11 248h2.5l-1.25 4z" stroke-width="1" fill="#DCE7FF"/><rect x="132.12" y="184" width="2.5" height="64" fill="#DCE7FF" opacity="0.9"/><path d="M132.12 248h2.5l-1.25 4z" stroke-width="1" fill="#DCE7FF"/><rect x="137.12" y="184" width="2.5" height="64" fill="#DCE7FF" opacity="0.9"/><path d="M137.12 248h2.5l-1.25 4z" stroke-width="1" fill="#DCE7FF"/><rect x="142.13" y="184" width="2.5" height="64" fill="#DCE7FF" opacity="0.9"/><path d="M142.13 248h2.5l-1.25 4z" stroke-width="1" fill="#DCE7FF"/><rect x="147.14" y="184" width="2.5" height="64" fill="#DCE7FF" opacity="0.9"/><path d="M147.14 248h2.5l-1.25 4z" stroke-width="1" fill="#DCE7FF"/><rect x="152.14" y="184" width="2.5" height="64" fill="#DCE7FF" opacity="0.9"/><path d="M152.14 248h2.5l-1.25 4z" stroke-width="1" fill="#DCE7FF"/><rect x="157.15" y="184" width="2.5" height="64" fill="#DCE7FF" opacity="0.9"/><path d="M157.15 248h2.5l-1.25 4z" stroke-width="1" fill="#DCE7FF"/><rect x="162.16" y="184" width="2.5" height="64" fill="#DCE7FF" opacity="0.9"/><path d="M162.16 248h2.5l-1.25 4z" stroke-width="1" fill="#DCE7FF"/><rect x="167.17" y="184" width="2.5" height="64" fill="#DCE7FF" opacity="0.9"/><path d="M167.17 248h2.5l-1.25 4z" stroke-width="1" fill="#DCE7FF"/><rect x="172.17" y="184" width="2.5" height="64" fill="#DCE7FF" opacity="0.9"/><path d="M172.17 248h2.5l-1.25 4z" stroke-width="1" fill="#DCE7FF"/><rect x="177.18" y="184" width="2.5" height="64" fill="#DCE7FF" opacity="0.9"/><path d="M177.18 248h2.5l-1.25 4z" stroke-width="1" fill="#DCE7FF"/><rect x="182.19" y="184" width="2.5" height="64" fill="#DCE7FF" opacity="0.9"/><path d="M182.19 248h2.5l-1.25 4z" stroke-width="1" fill="#DCE7FF"/><rect x="187.19" y="184" width="2.5" height="64" fill="#DCE7FF" opacity="0.9"/><path d="M187.19 248h2.5l-1.25 4z" stroke-width="1" fill="#DCE7FF"/><rect x="192.2" y="184" width="2.5" height="64" fill="#DCE7FF" opacity="0.9"/><path d="M192.2 248h2.5l-1.25 4z" stroke-width="1" fill="#DCE7FF"/><rect x="197.21" y="184" width="2.5" height="64" fill="#DCE7FF" opacity="0.9"/><path d="M197.21 248h2.5l-1.25 4z" stroke-width="1" fill="#DCE7FF"/><rect x="202.22" y="184" width="2.5" height="64" fill="#DCE7FF" opacity="0.9"/><path d="M202.22 248h2.5l-1.25 4z" stroke-width="1" fill="#DCE7FF"/><rect x="207.22" y="184" width="2.5" height="64" fill="#DCE7FF" opacity="0.9"/><path d="M207.22 248h2.5l-1.25 4z" stroke-width="1" fill="#DCE7FF"/><rect x="212.23" y="184" width="2.5" height="64" fill="#DCE7FF" opacity="0.9"/><path d="M212.23 248h2.5l-1.25 4z" stroke-width="1" fill="#DCE7FF"/><rect x="217.24" y="184" width="2.5" height="64" fill="#DCE7FF" opacity="0.9"/><path d="M217.24 248h2.5l-1.25 4z" stroke-width="1" fill="#DCE7FF"/><rect x="222.24" y="184" width="2.5" height="64" fill="#DCE7FF" opacity="0.9"/><path d="M222.24 248h2.5l-1.25 4z" stroke-width="1" fill="#DCE7FF"/><rect x="227.25" y="184" width="2.5" height="64" fill="#DCE7FF" opacity="0.9"/><path d="M227.25 248h2.5l-1.25 4z" stroke-width="1" fill="#DCE7FF"/><rect x="232.26" y="184" width="2.5" height="64" fill="#DCE7FF" opacity="0.9"/><path d="M232.26 248h2.5l-1.25 4z" stroke-width="1" fill="#DCE7FF"/><rect x="237.27" y="184" width="2.5" height="64" fill="#DCE7FF" opacity="0.9"/><path d="M237.27 248h2.5l-1.25 4z" stroke-width="1" fill="#DCE7FF"/><rect x="242.27" y="184" width="2.5" height="64" fill="#DCE7FF" opacity="0.9"/><path d="M242.27 248h2.5l-1.25 4z" stroke-width="1" fill="#DCE7FF"/><rect x="247.28" y="184" width="2.5" height="64" fill="#DCE7FF" opacity="0.9"/><path d="M247.28 248h2.5l-1.25 4z" stroke-width="1" fill="#DCE7FF"/><rect x="252.29" y="184" width="2.5" height="64" fill="#DCE7FF" opacity="0.9"/><path d="M252.29 248h2.5l-1.25 4z" stroke-width="1" fill="#DCE7FF"/><rect x="257.29" y="184" width="2.5" height="64" fill="#DCE7FF" opacity="0.9"/><path d="M257.29 248h2.5l-1.25 4z" stroke-width="1" fill="#DCE7FF"/><rect x="262.3" y="184" width="2.5" height="64" fill="#DCE7FF" opacity="0.9"/><path d="M262.3 248h2.5l-1.25 4z" stroke-width="1" fill="#DCE7FF"/><rect x="267.31" y="184" width="2.5" height="64" fill="#DCE7FF" opacity="0.9"/><path d="M267.31 248h2.5l-1.25 4z" stroke-width="1" fill="#DCE7FF"/><rect x="272.32" y="184" width="2.5" height="64" fill="#DCE7FF" opacity="0.9"/><path d="M272.32 248h2.5l-1.25 4z" stroke-width="1" fill="#DCE7FF"/><rect x="277.32" y="184" width="2.5" height="64" fill="#DCE7FF" opacity="0.9"/><path d="M277.32 248h2.5l-1.25 4z" stroke-width="1" fill="#DCE7FF"/><rect x="282.33" y="184" width="2.5" height="64" fill="#DCE7FF" opacity="0.9"/><path d="M282.33 248h2.5l-1.25 4z" stroke-width="1" fill="#DCE7FF"/><rect x="287.34" y="184" width="2.5" height="64" fill="#DCE7FF" opacity="0.9"/><path d="M287.34 248h2.5l-1.25 4z" stroke-width="1" fill="#DCE7FF"/><rect x="292.35" y="184" width="2.5" height="64" fill="#DCE7FF" opacity="0.9"/><path d="M292.35 248h2.5l-1.25 4z" stroke-width="1" fill="#DCE7FF"/><rect x="297.35" y="184" width="2.5" height="64" fill="#DCE7FF" opacity="0.9"/><path d="M297.35 248h2.5l-1.25 4z" stroke-width="1" fill="#DCE7FF"/><rect x="302.36" y="184" width="2.5" height="64" fill="#DCE7FF" opacity="0.9"/><path d="M302.36 248h2.5l-1.25 4z" stroke-width="1" fill="#DCE7FF"/><rect x="147.23" y="258" width="62.4" height="16" fill="#0A1526"/><text x="178.43" y="270" fill="#DCE7FF" font-size="10" text-anchor="middle" font-weight="800" letter-spacing="1.5" class="m">EASY 51</text><rect x="329.37" y="184" width="2.5" height="128" fill="#DCE7FF" opacity="0.9"/><path d="M329.37 312h2.5l-1.25 4z" stroke-width="1" fill="#DCE7FF"/><rect x="334.37" y="184" width="2.5" height="128" fill="#DCE7FF" opacity="0.9"/><path d="M334.37 312h2.5l-1.25 4z" stroke-width="1" fill="#DCE7FF"/><rect x="339.38" y="184" width="2.5" height="128" fill="#DCE7FF" opacity="0.9"/><path d="M339.38 312h2.5l-1.25 4z" stroke-width="1" fill="#DCE7FF"/><rect x="344.39" y="184" width="2.5" height="128" fill="#DCE7FF" opacity="0.9"/><path d="M344.39 312h2.5l-1.25 4z" stroke-width="1" fill="#DCE7FF"/><rect x="349.4" y="184" width="2.5" height="128" fill="#DCE7FF" opacity="0.9"/><path d="M349.4 312h2.5l-1.25 4z" stroke-width="1" fill="#DCE7FF"/><rect x="354.4" y="184" width="2.5" height="128" fill="#DCE7FF" opacity="0.9"/><path d="M354.4 312h2.5l-1.25 4z" stroke-width="1" fill="#DCE7FF"/><rect x="359.41" y="184" width="2.5" height="128" fill="#DCE7FF" opacity="0.9"/><path d="M359.41 312h2.5l-1.25 4z" stroke-width="1" fill="#DCE7FF"/><rect x="364.42" y="184" width="2.5" height="128" fill="#DCE7FF" opacity="0.9"/><path d="M364.42 312h2.5l-1.25 4z" stroke-width="1" fill="#DCE7FF"/><rect x="369.42" y="184" width="2.5" height="128" fill="#DCE7FF" opacity="0.9"/><path d="M369.42 312h2.5l-1.25 4z" stroke-width="1" fill="#DCE7FF"/><rect x="374.43" y="184" width="2.5" height="128" fill="#DCE7FF" opacity="0.9"/><path d="M374.43 312h2.5l-1.25 4z" stroke-width="1" fill="#DCE7FF"/><rect x="379.44" y="184" width="2.5" height="128" fill="#DCE7FF" opacity="0.9"/><path d="M379.44 312h2.5l-1.25 4z" stroke-width="1" fill="#DCE7FF"/><rect x="384.45" y="184" width="2.5" height="128" fill="#DCE7FF" opacity="0.9"/><path d="M384.45 312h2.5l-1.25 4z" stroke-width="1" fill="#DCE7FF"/><rect x="389.45" y="184" width="2.5" height="128" fill="#DCE7FF" opacity="0.9"/><path d="M389.45 312h2.5l-1.25 4z" stroke-width="1" fill="#DCE7FF"/><rect x="394.46" y="184" width="2.5" height="128" fill="#DCE7FF" opacity="0.9"/><path d="M394.46 312h2.5l-1.25 4z" stroke-width="1" fill="#DCE7FF"/><rect x="399.47" y="184" width="2.5" height="128" fill="#DCE7FF" opacity="0.9"/><path d="M399.47 312h2.5l-1.25 4z" stroke-width="1" fill="#DCE7FF"/><rect x="404.47" y="184" width="2.5" height="128" fill="#DCE7FF" opacity="0.9"/><path d="M404.47 312h2.5l-1.25 4z" stroke-width="1" fill="#DCE7FF"/><rect x="409.48" y="184" width="2.5" height="128" fill="#DCE7FF" opacity="0.9"/><path d="M409.48 312h2.5l-1.25 4z" stroke-width="1" fill="#DCE7FF"/><rect x="414.49" y="184" width="2.5" height="128" fill="#DCE7FF" opacity="0.9"/><path d="M414.49 312h2.5l-1.25 4z" stroke-width="1" fill="#DCE7FF"/><rect x="419.5" y="184" width="2.5" height="128" fill="#DCE7FF" opacity="0.9"/><path d="M419.5 312h2.5l-1.25 4z" stroke-width="1" fill="#DCE7FF"/><rect x="424.5" y="184" width="2.5" height="128" fill="#DCE7FF" opacity="0.9"/><path d="M424.5 312h2.5l-1.25 4z" stroke-width="1" fill="#DCE7FF"/><rect x="429.51" y="184" width="2.5" height="128" fill="#DCE7FF" opacity="0.9"/><path d="M429.51 312h2.5l-1.25 4z" stroke-width="1" fill="#DCE7FF"/><rect x="434.52" y="184" width="2.5" height="128" fill="#DCE7FF" opacity="0.9"/><path d="M434.52 312h2.5l-1.25 4z" stroke-width="1" fill="#DCE7FF"/><rect x="439.53" y="184" width="2.5" height="128" fill="#DCE7FF" opacity="0.9"/><path d="M439.53 312h2.5l-1.25 4z" stroke-width="1" fill="#DCE7FF"/><rect x="444.53" y="184" width="2.5" height="128" fill="#DCE7FF" opacity="0.9"/><path d="M444.53 312h2.5l-1.25 4z" stroke-width="1" fill="#DCE7FF"/><rect x="449.54" y="184" width="2.5" height="128" fill="#DCE7FF" opacity="0.9"/><path d="M449.54 312h2.5l-1.25 4z" stroke-width="1" fill="#DCE7FF"/><rect x="454.55" y="184" width="2.5" height="128" fill="#DCE7FF" opacity="0.9"/><path d="M454.55 312h2.5l-1.25 4z" stroke-width="1" fill="#DCE7FF"/><rect x="459.55" y="184" width="2.5" height="128" fill="#DCE7FF" opacity="0.9"/><path d="M459.55 312h2.5l-1.25 4z" stroke-width="1" fill="#DCE7FF"/><rect x="464.56" y="184" width="2.5" height="128" fill="#DCE7FF" opacity="0.9"/><path d="M464.56 312h2.5l-1.25 4z" stroke-width="1" fill="#DCE7FF"/><rect x="469.57" y="184" width="2.5" height="128" fill="#DCE7FF" opacity="0.9"/><path d="M469.57 312h2.5l-1.25 4z" stroke-width="1" fill="#DCE7FF"/><rect x="474.58" y="184" width="2.5" height="128" fill="#DCE7FF" opacity="0.9"/><path d="M474.58 312h2.5l-1.25 4z" stroke-width="1" fill="#DCE7FF"/><rect x="479.58" y="184" width="2.5" height="128" fill="#DCE7FF" opacity="0.9"/><path d="M479.58 312h2.5l-1.25 4z" stroke-width="1" fill="#DCE7FF"/><rect x="484.59" y="184" width="2.5" height="128" fill="#DCE7FF" opacity="0.9"/><path d="M484.59 312h2.5l-1.25 4z" stroke-width="1" fill="#DCE7FF"/><rect x="489.6" y="184" width="2.5" height="128" fill="#DCE7FF" opacity="0.9"/><path d="M489.6 312h2.5l-1.25 4z" stroke-width="1" fill="#DCE7FF"/><rect x="494.6" y="184" width="2.5" height="128" fill="#DCE7FF" opacity="0.9"/><path d="M494.6 312h2.5l-1.25 4z" stroke-width="1" fill="#DCE7FF"/><rect x="499.61" y="184" width="2.5" height="128" fill="#DCE7FF" opacity="0.9"/><path d="M499.61 312h2.5l-1.25 4z" stroke-width="1" fill="#DCE7FF"/><rect x="504.62" y="184" width="2.5" height="128" fill="#DCE7FF" opacity="0.9"/><path d="M504.62 312h2.5l-1.25 4z" stroke-width="1" fill="#DCE7FF"/><rect x="509.63" y="184" width="2.5" height="128" fill="#DCE7FF" opacity="0.9"/><path d="M509.63 312h2.5l-1.25 4z" stroke-width="1" fill="#DCE7FF"/><rect x="514.63" y="184" width="2.5" height="128" fill="#DCE7FF" opacity="0.9"/><path d="M514.63 312h2.5l-1.25 4z" stroke-width="1" fill="#DCE7FF"/><rect x="519.64" y="184" width="2.5" height="128" fill="#DCE7FF" opacity="0.9"/><path d="M519.64 312h2.5l-1.25 4z" stroke-width="1" fill="#DCE7FF"/><rect x="524.65" y="184" width="2.5" height="128" fill="#DCE7FF" opacity="0.9"/><path d="M524.65 312h2.5l-1.25 4z" stroke-width="1" fill="#DCE7FF"/><rect x="529.65" y="184" width="2.5" height="128" fill="#DCE7FF" opacity="0.9"/><path d="M529.65 312h2.5l-1.25 4z" stroke-width="1" fill="#DCE7FF"/><rect x="534.66" y="184" width="2.5" height="128" fill="#DCE7FF" opacity="0.9"/><path d="M534.66 312h2.5l-1.25 4z" stroke-width="1" fill="#DCE7FF"/><rect x="539.67" y="184" width="2.5" height="128" fill="#DCE7FF" opacity="0.9"/><path d="M539.67 312h2.5l-1.25 4z" stroke-width="1" fill="#DCE7FF"/><rect x="544.68" y="184" width="2.5" height="128" fill="#DCE7FF" opacity="0.9"/><path d="M544.68 312h2.5l-1.25 4z" stroke-width="1" fill="#DCE7FF"/><rect x="549.68" y="184" width="2.5" height="128" fill="#DCE7FF" opacity="0.9"/><path d="M549.68 312h2.5l-1.25 4z" stroke-width="1" fill="#DCE7FF"/><rect x="554.69" y="184" width="2.5" height="128" fill="#DCE7FF" opacity="0.9"/><path d="M554.69 312h2.5l-1.25 4z" stroke-width="1" fill="#DCE7FF"/><rect x="559.7" y="184" width="2.5" height="128" fill="#DCE7FF" opacity="0.9"/><path d="M559.7 312h2.5l-1.25 4z" stroke-width="1" fill="#DCE7FF"/><rect x="564.71" y="184" width="2.5" height="128" fill="#DCE7FF" opacity="0.9"/><path d="M564.71 312h2.5l-1.25 4z" stroke-width="1" fill="#DCE7FF"/><rect x="569.71" y="184" width="2.5" height="128" fill="#DCE7FF" opacity="0.9"/><path d="M569.71 312h2.5l-1.25 4z" stroke-width="1" fill="#DCE7FF"/><rect x="574.72" y="184" width="2.5" height="128" fill="#DCE7FF" opacity="0.9"/><path d="M574.72 312h2.5l-1.25 4z" stroke-width="1" fill="#DCE7FF"/><rect x="579.73" y="184" width="2.5" height="128" fill="#DCE7FF" opacity="0.9"/><path d="M579.73 312h2.5l-1.25 4z" stroke-width="1" fill="#DCE7FF"/><rect x="584.73" y="184" width="2.5" height="128" fill="#DCE7FF" opacity="0.9"/><path d="M584.73 312h2.5l-1.25 4z" stroke-width="1" fill="#DCE7FF"/><rect x="589.74" y="184" width="2.5" height="128" fill="#DCE7FF" opacity="0.9"/><path d="M589.74 312h2.5l-1.25 4z" stroke-width="1" fill="#DCE7FF"/><rect x="594.75" y="184" width="2.5" height="128" fill="#DCE7FF" opacity="0.9"/><path d="M594.75 312h2.5l-1.25 4z" stroke-width="1" fill="#DCE7FF"/><rect x="599.76" y="184" width="2.5" height="128" fill="#DCE7FF" opacity="0.9"/><path d="M599.76 312h2.5l-1.25 4z" stroke-width="1" fill="#DCE7FF"/><rect x="604.76" y="184" width="2.5" height="128" fill="#DCE7FF" opacity="0.9"/><path d="M604.76 312h2.5l-1.25 4z" stroke-width="1" fill="#DCE7FF"/><rect x="609.77" y="184" width="2.5" height="128" fill="#DCE7FF" opacity="0.9"/><path d="M609.77 312h2.5l-1.25 4z" stroke-width="1" fill="#DCE7FF"/><rect x="614.78" y="184" width="2.5" height="128" fill="#DCE7FF" opacity="0.9"/><path d="M614.78 312h2.5l-1.25 4z" stroke-width="1" fill="#DCE7FF"/><rect x="619.78" y="184" width="2.5" height="128" fill="#DCE7FF" opacity="0.9"/><path d="M619.78 312h2.5l-1.25 4z" stroke-width="1" fill="#DCE7FF"/><rect x="624.79" y="184" width="2.5" height="128" fill="#DCE7FF" opacity="0.9"/><path d="M624.79 312h2.5l-1.25 4z" stroke-width="1" fill="#DCE7FF"/><rect x="629.8" y="184" width="2.5" height="128" fill="#DCE7FF" opacity="0.9"/><path d="M629.8 312h2.5l-1.25 4z" stroke-width="1" fill="#DCE7FF"/><rect x="634.81" y="184" width="2.5" height="128" fill="#DCE7FF" opacity="0.9"/><path d="M634.81 312h2.5l-1.25 4z" stroke-width="1" fill="#DCE7FF"/><rect x="639.81" y="184" width="2.5" height="128" fill="#DCE7FF" opacity="0.9"/><path d="M639.81 312h2.5l-1.25 4z" stroke-width="1" fill="#DCE7FF"/><rect x="644.82" y="184" width="2.5" height="128" fill="#DCE7FF" opacity="0.9"/><path d="M644.82 312h2.5l-1.25 4z" stroke-width="1" fill="#DCE7FF"/><rect x="649.83" y="184" width="2.5" height="128" fill="#DCE7FF" opacity="0.9"/><path d="M649.83 312h2.5l-1.25 4z" stroke-width="1" fill="#DCE7FF"/><rect x="654.83" y="184" width="2.5" height="128" fill="#DCE7FF" opacity="0.9"/><path d="M654.83 312h2.5l-1.25 4z" stroke-width="1" fill="#DCE7FF"/><rect x="659.84" y="184" width="2.5" height="128" fill="#DCE7FF" opacity="0.9"/><path d="M659.84 312h2.5l-1.25 4z" stroke-width="1" fill="#DCE7FF"/><rect x="457.46" y="322" width="76.8" height="16" fill="#0A1526"/><text x="495.86" y="334" fill="#DCE7FF" font-size="10" text-anchor="middle" font-weight="800" letter-spacing="1.5" class="m">MEDIUM 67</text><rect x="686.85" y="184" width="2.5" height="192" fill="#DCE7FF" opacity="0.9"/><path d="M686.85 376h2.5l-1.25 4z" stroke-width="1" fill="#DCE7FF"/><rect x="691.86" y="184" width="2.5" height="192" fill="#DCE7FF" opacity="0.9"/><path d="M691.86 376h2.5l-1.25 4z" stroke-width="1" fill="#DCE7FF"/><rect x="696.86" y="184" width="2.5" height="192" fill="#DCE7FF" opacity="0.9"/><path d="M696.86 376h2.5l-1.25 4z" stroke-width="1" fill="#DCE7FF"/><rect x="701.87" y="184" width="2.5" height="192" fill="#DCE7FF" opacity="0.9"/><path d="M701.87 376h2.5l-1.25 4z" stroke-width="1" fill="#DCE7FF"/><rect x="706.88" y="184" width="2.5" height="192" fill="#DCE7FF" opacity="0.9"/><path d="M706.88 376h2.5l-1.25 4z" stroke-width="1" fill="#DCE7FF"/><rect x="711.88" y="184" width="2.5" height="192" fill="#DCE7FF" opacity="0.9"/><path d="M711.88 376h2.5l-1.25 4z" stroke-width="1" fill="#DCE7FF"/><rect x="716.89" y="184" width="2.5" height="192" fill="#DCE7FF" opacity="0.9"/><path d="M716.89 376h2.5l-1.25 4z" stroke-width="1" fill="#DCE7FF"/><rect x="721.9" y="184" width="2.5" height="192" fill="#DCE7FF" opacity="0.9"/><path d="M721.9 376h2.5l-1.25 4z" stroke-width="1" fill="#DCE7FF"/><rect x="726.91" y="184" width="2.5" height="192" fill="#DCE7FF" opacity="0.9"/><path d="M726.91 376h2.5l-1.25 4z" stroke-width="1" fill="#DCE7FF"/><rect x="731.91" y="184" width="2.5" height="192" fill="#DCE7FF" opacity="0.9"/><path d="M731.91 376h2.5l-1.25 4z" stroke-width="1" fill="#DCE7FF"/><rect x="736.92" y="184" width="2.5" height="192" fill="#DCE7FF" opacity="0.9"/><path d="M736.92 376h2.5l-1.25 4z" stroke-width="1" fill="#DCE7FF"/><rect x="741.93" y="184" width="2.5" height="192" fill="#DCE7FF" opacity="0.9"/><path d="M741.93 376h2.5l-1.25 4z" stroke-width="1" fill="#DCE7FF"/><rect x="746.94" y="184" width="2.5" height="192" fill="#DCE7FF" opacity="0.9"/><path d="M746.94 376h2.5l-1.25 4z" stroke-width="1" fill="#DCE7FF"/><rect x="751.94" y="184" width="2.5" height="192" fill="#DCE7FF" opacity="0.9"/><path d="M751.94 376h2.5l-1.25 4z" stroke-width="1" fill="#DCE7FF"/><rect x="756.95" y="184" width="2.5" height="192" fill="#DCE7FF" opacity="0.9"/><path d="M756.95 376h2.5l-1.25 4z" stroke-width="1" fill="#DCE7FF"/><rect x="761.96" y="184" width="2.5" height="192" fill="#DCE7FF" opacity="0.9"/><path d="M761.96 376h2.5l-1.25 4z" stroke-width="1" fill="#DCE7FF"/><rect x="766.96" y="184" width="2.5" height="192" fill="#DCE7FF" opacity="0.9"/><path d="M766.96 376h2.5l-1.25 4z" stroke-width="1" fill="#DCE7FF"/><rect x="771.97" y="184" width="2.5" height="192" fill="#DCE7FF" opacity="0.9"/><path d="M771.97 376h2.5l-1.25 4z" stroke-width="1" fill="#DCE7FF"/><rect x="776.98" y="184" width="2.5" height="192" fill="#DCE7FF" opacity="0.9"/><path d="M776.98 376h2.5l-1.25 4z" stroke-width="1" fill="#DCE7FF"/><rect x="781.99" y="184" width="2.5" height="192" fill="#DCE7FF" opacity="0.9"/><path d="M781.99 376h2.5l-1.25 4z" stroke-width="1" fill="#DCE7FF"/><rect x="786.99" y="184" width="2.5" height="192" fill="#DCE7FF" opacity="0.9"/><path d="M786.99 376h2.5l-1.25 4z" stroke-width="1" fill="#DCE7FF"/><rect x="706.97" y="386" width="62.4" height="16" fill="#0A1526"/><text x="738.17" y="398" fill="#DCE7FF" font-size="10" text-anchor="middle" font-weight="800" letter-spacing="1.5" class="m">HARD 21</text><line x1="816" y1="184" x2="816" y2="376" stroke="#8DA1C6" stroke-width="0.8"/><line x1="811" y1="248" x2="821" y2="248" stroke="#8DA1C6" stroke-width="0.8"/><text x="826" y="252" fill="#8DA1C6" font-size="9" class="m">1×</text><line x1="811" y1="312" x2="821" y2="312" stroke="#8DA1C6" stroke-width="0.8"/><text x="826" y="316" fill="#8DA1C6" font-size="9" class="m">2×</text><line x1="811" y1="376" x2="821" y2="376" stroke="#8DA1C6" stroke-width="0.8"/><text x="826" y="380" fill="#8DA1C6" font-size="9" class="m">3×</text><line x1="811" y1="184" x2="821" y2="184" stroke="#8DA1C6" stroke-width="0.8"/><text x="44" y="426" fill="#8DA1C6" font-size="8.5" letter-spacing="2" class="m">POUR LOG</text><text x="120" y="426" fill="#8DA1C6" font-size="9" class="m">submissions per day · 90 days to 2026-09-29</text><line x1="44" y1="474" x2="836" y2="474" stroke="#34507E" stroke-width="1"/><rect x="45.4" y="472.5" width="6" height="1.5" fill="#34507E"/><rect x="54.2" y="472.5" width="6" height="1.5" fill="#34507E"/><rect x="63" y="472.5" width="6" height="1.5" fill="#34507E"/><rect x="71.8" y="472.5" width="6" height="1.5" fill="#34507E"/><rect x="80.6" y="472.5" width="6" height="1.5" fill="#34507E"/><rect x="89.4" y="472.5" width="6" height="1.5" fill="#34507E"/><rect x="98.2" y="472.5" width="6" height="1.5" fill="#34507E"/><rect x="107" y="472.5" width="6" height="1.5" fill="#34507E"/><rect x="115.8" y="472.5" width="6" height="1.5" fill="#34507E"/><rect x="124.6" y="472.5" width="6" height="1.5" fill="#34507E"/><rect x="133.4" y="472.5" width="6" height="1.5" fill="#34507E"/><rect x="142.2" y="472.5" width="6" height="1.5" fill="#34507E"/><rect x="151" y="472.5" width="6" height="1.5" fill="#34507E"/><rect x="159.8" y="472.5" width="6" height="1.5" fill="#34507E"/><rect x="168.6" y="472.5" width="6" height="1.5" fill="#34507E"/><rect x="177.4" y="472.5" width="6" height="1.5" fill="#34507E"/><rect x="186.2" y="472.5" width="6" height="1.5" fill="#34507E"/><rect x="195" y="472.5" width="6" height="1.5" fill="#34507E"/><rect x="203.8" y="472.5" width="6" height="1.5" fill="#34507E"/><rect x="212.6" y="472.5" width="6" height="1.5" fill="#34507E"/><rect x="221.4" y="472.5" width="6" height="1.5" fill="#34507E"/><rect x="230.2" y="472.5" width="6" height="1.5" fill="#34507E"/><rect x="239" y="465.5" width="6" height="8.5" fill="#DCE7FF" opacity="0.9"/><rect x="247.8" y="472.5" width="6" height="1.5" fill="#34507E"/><rect x="256.6" y="472.5" width="6" height="1.5" fill="#34507E"/><rect x="265.4" y="472.5" width="6" height="1.5" fill="#34507E"/><rect x="274.2" y="472.5" width="6" height="1.5" fill="#34507E"/><rect x="283" y="472.5" width="6" height="1.5" fill="#34507E"/><rect x="291.8" y="472.5" width="6" height="1.5" fill="#34507E"/><rect x="300.6" y="472.5" width="6" height="1.5" fill="#34507E"/><rect x="309.4" y="463" width="6" height="11" fill="#DCE7FF" opacity="0.9"/><line x1="309.4" y1="474" x2="309.4" y2="480" stroke="#8DA1C6" stroke-width="0.8"/><text x="311.4" y="490" fill="#8DA1C6" font-size="8.5" class="m">AUG</text><rect x="318.2" y="455.5" width="6" height="18.5" fill="#DCE7FF" opacity="0.9"/><rect x="327" y="458" width="6" height="16" fill="#DCE7FF" opacity="0.9"/><rect x="335.8" y="458" width="6" height="16" fill="#DCE7FF" opacity="0.9"/><rect x="344.6" y="455.5" width="6" height="18.5" fill="#DCE7FF" opacity="0.9"/><rect x="353.4" y="453" width="6" height="21" fill="#DCE7FF" opacity="0.9"/><rect x="362.2" y="445.5" width="6" height="28.5" fill="#DCE7FF" opacity="0.9"/><rect x="371" y="463" width="6" height="11" fill="#DCE7FF" opacity="0.9"/><rect x="379.8" y="458" width="6" height="16" fill="#DCE7FF" opacity="0.9"/><rect x="388.6" y="460.5" width="6" height="13.5" fill="#DCE7FF" opacity="0.9"/><rect x="397.4" y="455.5" width="6" height="18.5" fill="#DCE7FF" opacity="0.9"/><rect x="406.2" y="458" width="6" height="16" fill="#DCE7FF" opacity="0.9"/><rect x="415" y="458" width="6" height="16" fill="#DCE7FF" opacity="0.9"/><rect x="423.8" y="453" width="6" height="21" fill="#DCE7FF" opacity="0.9"/><rect x="432.6" y="458" width="6" height="16" fill="#DCE7FF" opacity="0.9"/><rect x="441.4" y="453" width="6" height="21" fill="#DCE7FF" opacity="0.9"/><rect x="450.2" y="450.5" width="6" height="23.5" fill="#DCE7FF" opacity="0.9"/><rect x="459" y="450.5" width="6" height="23.5" fill="#DCE7FF" opacity="0.9"/><rect x="467.8" y="445.5" width="6" height="28.5" fill="#DCE7FF" opacity="0.9"/><rect x="476.6" y="453" width="6" height="21" fill="#DCE7FF" opacity="0.9"/><rect x="485.4" y="453" width="6" height="21" fill="#DCE7FF" opacity="0.9"/><rect x="494.2" y="455.5" width="6" height="18.5" fill="#DCE7FF" opacity="0.9"/><rect x="503" y="465.5" width="6" height="8.5" fill="#DCE7FF" opacity="0.9"/><rect x="511.8" y="458" width="6" height="16" fill="#DCE7FF" opacity="0.9"/><rect x="520.6" y="472.5" width="6" height="1.5" fill="#34507E"/><rect x="529.4" y="448" width="6" height="26" fill="#DCE7FF" opacity="0.9"/><rect x="538.2" y="450.5" width="6" height="23.5" fill="#DCE7FF" opacity="0.9"/><rect x="547" y="458" width="6" height="16" fill="#DCE7FF" opacity="0.9"/><rect x="555.8" y="460.5" width="6" height="13.5" fill="#DCE7FF" opacity="0.9"/><rect x="564.6" y="460.5" width="6" height="13.5" fill="#DCE7FF" opacity="0.9"/><rect x="573.4" y="465.5" width="6" height="8.5" fill="#DCE7FF" opacity="0.9"/><rect x="582.2" y="460.5" width="6" height="13.5" fill="#DCE7FF" opacity="0.9"/><line x1="582.2" y1="474" x2="582.2" y2="480" stroke="#8DA1C6" stroke-width="0.8"/><text x="584.2" y="490" fill="#8DA1C6" font-size="8.5" class="m">SEP</text><rect x="591" y="453" width="6" height="21" fill="#DCE7FF" opacity="0.9"/><rect x="599.8" y="460.5" width="6" height="13.5" fill="#DCE7FF" opacity="0.9"/><rect x="608.6" y="463" width="6" height="11" fill="#DCE7FF" opacity="0.9"/><rect x="617.4" y="460.5" width="6" height="13.5" fill="#DCE7FF" opacity="0.9"/><rect x="626.2" y="460.5" width="6" height="13.5" fill="#DCE7FF" opacity="0.9"/><rect x="635" y="460.5" width="6" height="13.5" fill="#DCE7FF" opacity="0.9"/><rect x="643.8" y="460.5" width="6" height="13.5" fill="#DCE7FF" opacity="0.9"/><rect x="652.6" y="458" width="6" height="16" fill="#DCE7FF" opacity="0.9"/><rect x="661.4" y="465.5" width="6" height="8.5" fill="#DCE7FF" opacity="0.9"/><rect x="670.2" y="463" width="6" height="11" fill="#DCE7FF" opacity="0.9"/><rect x="679" y="465.5" width="6" height="8.5" fill="#DCE7FF" opacity="0.9"/><rect x="687.8" y="465.5" width="6" height="8.5" fill="#DCE7FF" opacity="0.9"/><rect x="696.6" y="443" width="6" height="31" fill="#DCE7FF" opacity="0.9"/><rect x="705.4" y="463" width="6" height="11" fill="#DCE7FF" opacity="0.9"/><rect x="714.2" y="463" width="6" height="11" fill="#DCE7FF" opacity="0.9"/><rect x="723" y="465.5" width="6" height="8.5" fill="#DCE7FF" opacity="0.9"/><rect x="731.8" y="463" width="6" height="11" fill="#DCE7FF" opacity="0.9"/><rect x="740.6" y="463" width="6" height="11" fill="#DCE7FF" opacity="0.9"/><rect x="749.4" y="453" width="6" height="21" fill="#DCE7FF" opacity="0.9"/><rect x="758.2" y="465.5" width="6" height="8.5" fill="#DCE7FF" opacity="0.9"/><rect x="767" y="472.5" width="6" height="1.5" fill="#34507E"/><rect x="775.8" y="458" width="6" height="16" fill="#DCE7FF" opacity="0.9"/><rect x="784.6" y="463" width="6" height="11" fill="#DCE7FF" opacity="0.9"/><rect x="793.4" y="463" width="6" height="11" fill="#DCE7FF" opacity="0.9"/><rect x="802.2" y="472.5" width="6" height="1.5" fill="#34507E"/><rect x="811" y="460.5" width="6" height="13.5" fill="#DCE7FF" opacity="0.9"/><rect x="819.8" y="463" width="6" height="11" fill="#DCE7FF" opacity="0.9"/><rect x="828.6" y="463" width="6" height="11" fill="#F5A623" opacity="0.9"/><text x="44" y="516" fill="#DCE7FF" font-size="10.5" class="m">ACTIVE DAYS 58 IN 2026   ·   MAX STREAK 27   ·   SOLVED IN  Python3 100 · C++ 40</text><rect x="16" y="536" width="848" height="48" fill="#0A1526" stroke="#DCE7FF" stroke-width="1.2"/><text x="24" y="548.5" fill="#8DA1C6" font-size="7.5" letter-spacing="1.3" class="m">SOURCE</text><text x="24" y="574" fill="#DCE7FF" font-size="11" font-weight="700" class="m">leetcode.com/u/Tusharr_07 · public API</text><line x1="296" y1="536" x2="296" y2="584" stroke="#DCE7FF" stroke-width="0.8"/><text x="304" y="548.5" fill="#8DA1C6" font-size="7.5" letter-spacing="1.3" class="m">LAST ACTIVE</text><text x="304" y="574" fill="#DCE7FF" font-size="12" font-weight="700" class="m">2026-09-29</text><line x1="412" y1="536" x2="412" y2="584" stroke="#DCE7FF" stroke-width="0.8"/><text x="420" y="548.5" fill="#8DA1C6" font-size="7.5" letter-spacing="1.3" class="m">PRACTICE REPO</text><text x="420" y="574" fill="#DCE7FF" font-size="11" font-weight="700" class="m">DSA-in-Cpp · 21 C++ files</text><line x1="626" y1="536" x2="626" y2="584" stroke="#DCE7FF" stroke-width="0.8"/><text x="634" y="548.5" fill="#8DA1C6" font-size="7.5" letter-spacing="1.3" class="m">REV</text><text x="634" y="574" fill="#F5A623" font-size="12" font-weight="700" class="m">02</text><line x1="686" y1="536" x2="686" y2="584" stroke="#DCE7FF" stroke-width="0.8"/><text x="694" y="548.5" fill="#8DA1C6" font-size="7.5" letter-spacing="1.3" class="m">SHEET</text><text x="694" y="574" fill="#DCE7FF" font-size="19" font-weight="700" class="m">S-201</text></svg>
